HIERARCHY
ROOT root
{
	OFFSET 0.000000 0.000000 0.000000
	CHANNELS 6 Xposition Yposition Zposition Zrotation Yrotation Xrotation
	JOINT lhip
	{
		OFFSET 0.058581 -0.082280 -0.017664
		CHANNELS 3 Zrotation Yrotation Xrotation
		JOINT lknee
		{
			OFFSET 0.043451 -0.386469 0.008037
			CHANNELS 3 Zrotation Yrotation Xrotation
			JOINT lankle
			{
				OFFSET -0.014790 -0.426874 -0.037428
				CHANNELS 3 Zrotation Yrotation Xrotation
				JOINT ltoe
				{
					OFFSET 0.041054 -0.060286 0.122042
					CHANNELS 3 Zrotation Yrotation Xrotation
					End Site
					{
						OFFSET 0.000000 0.000000 0.000000
					}
				}
			}
		}
	}
	JOINT rhip
	{
		OFFSET -0.060310 -0.090513 -0.013543
		CHANNELS 3 Zrotation Yrotation Xrotation
		JOINT rknee
		{
			OFFSET -0.043257 -0.383688 -0.004843
			CHANNELS 3 Zrotation Yrotation Xrotation
			JOINT rankle
			{
				OFFSET 0.019056 -0.420046 -0.034562
				CHANNELS 3 Zrotation Yrotation Xrotation
				JOINT rtoe
				{
					OFFSET -0.034840 -0.062106 0.130323
					CHANNELS 3 Zrotation Yrotation Xrotation
					End Site
					{
						OFFSET 0.000000 0.000000 0.000000
					}
				}
			}
		}
	}
	JOINT lowerback
	{
		OFFSET 0.004439 0.124404 -0.038385
		CHANNELS 3 Zrotation Yrotation Xrotation
		JOINT upperback
		{
			OFFSET 0.004488 0.137956 0.026820
			CHANNELS 3 Zrotation Yrotation Xrotation
			JOINT chest
			{
				OFFSET -0.002265 0.056032 0.002855
				CHANNELS 3 Zrotation Yrotation Xrotation
				JOINT lowerneck
				{
					OFFSET -0.013390 0.211636 -0.033468
					CHANNELS 3 Zrotation Yrotation Xrotation
					JOINT upperneck
					{
						OFFSET 0.010113 0.088937 0.050410
						CHANNELS 3 Zrotation Yrotation Xrotation
						End Site
						{
							OFFSET 0.000000 0.000000 0.000000
						}
					}
				}
				JOINT lclavicle
				{
					OFFSET 0.071702 0.114000 -0.018898
					CHANNELS 3 Zrotation Yrotation Xrotation
					JOINT lshoulder
					{
						OFFSET 0.122921 0.045205 -0.019046
						CHANNELS 3 Zrotation Yrotation Xrotation
						JOINT lelbow
						{
							OFFSET 0.255332 -0.015649 -0.022946
							CHANNELS 3 Zrotation Yrotation Xrotation
							JOINT lwrist
							{
								OFFSET 0.265709 0.012698 -0.007375
								CHANNELS 3 Zrotation Yrotation Xrotation
								End Site
								{
									OFFSET 0.000000 0.000000 0.000000
								}
							}
						}
					}
				}
				JOINT rclavicle
				{
					OFFSET -0.082954 0.112472 -0.023707
					CHANNELS 3 Zrotation Yrotation Xrotation
					JOINT rshoulder
					{
						OFFSET -0.113228 0.046853 -0.008472
						CHANNELS 3 Zrotation Yrotation Xrotation
						JOINT relbow
						{
							OFFSET -0.260127 -0.014369 -0.031269
							CHANNELS 3 Zrotation Yrotation Xrotation
							JOINT rwrist
							{
								OFFSET -0.269108 0.006794 -0.006027
								CHANNELS 3 Zrotation Yrotation Xrotation
								End Site
								{
									OFFSET 0.000000 0.000000 0.000000
								}
							}
						}
					}
				}
			}
		}
	}
}
MOTION
Frames: 13
Frame Time: 0.033333
0.322460 0.191432 0.989723 89.158306 -1.125253 92.314000 5.795456 6.036548 -1.730852 -3.571821 2.267613 0.115406 -0.153146 4.982227 -2.804301 0.000000 -0.000000 0.000000 -9.629951 -4.208192 -4.567443 1.159780 -5.664959 3.747705 7.865511 -1.246150 -3.623356 0.000000 -0.000000 0.000000 -7.958439 3.717534 -8.998081 5.203596 -5.874959 28.004332 -0.670079 2.397894 -13.296353 2.318259 6.443073 15.827914 9.549039 -8.199490 3.937316 -8.401680 -17.019016 -2.139798 -40.791992 -40.869524 18.469566 0.294769 -62.857330 22.738570 -24.062833 -15.948449 13.064132 21.258532 15.093583 9.293187 54.974671 19.307906 15.742856 -22.569510 80.445971 -8.668281 -19.292024 19.283368 8.536424 
0.322895 0.191441 0.989856 89.119618 -1.097314 92.222697 5.826974 6.002082 -1.609260 -3.554502 2.354470 0.169441 -0.133482 4.964317 -2.870402 0.000000 -0.000000 0.000000 -9.600593 -4.204466 -4.449729 1.158922 -5.632267 3.717962 7.847994 -1.257850 -3.583229 0.000000 -0.000000 0.000000 -8.092883 3.693451 -8.959566 5.374413 -5.859025 28.133430 -0.577896 2.391243 -13.383499 2.514978 6.381406 15.882484 9.451778 -8.390526 3.871033 -8.580278 -16.362286 -2.246912 -40.198292 -40.445504 18.477423 -0.844815 -65.455120 24.045993 -24.888395 -16.201969 12.883213 21.582251 14.524210 9.237638 54.567341 18.910182 15.820891 -26.763032 80.140544 -11.991673 -17.850537 19.676721 9.804937 
0.323166 0.191292 0.989968 89.046880 -1.061519 92.194242 5.863274 6.012795 -1.587710 -3.540142 2.343650 0.270126 -0.101013 5.051269 -2.955836 0.000000 -0.000000 0.000000 -9.531230 -4.242871 -4.419362 1.135179 -5.475337 3.699148 7.776912 -1.281074 -3.525294 0.000000 -0.000000 0.000000 -8.222392 3.772263 -9.031273 5.509882 -5.844812 28.187680 -0.461602 2.503262 -13.442589 2.435116 6.010420 15.966656 9.521714 -8.331632 4.037417 -8.627194 -16.217160 -2.225529 -39.408172 -40.191838 18.188261 -3.285170 -67.579976 26.343597 -25.368875 -15.847869 13.182733 21.669122 14.340648 9.075754 52.936089 19.262344 15.027225 -20.781840 79.253619 -5.803189 -16.448951 19.793266 12.271576 
0.323519 0.191298 0.989926 88.916164 -0.989451 92.167664 5.950840 5.974146 -1.491145 -3.555771 2.540715 0.242456 -0.061278 5.008907 -2.991834 0.000000 -0.000000 0.000000 -9.489090 -4.227532 -4.388054 1.170150 -5.488614 3.683684 7.833002 -1.150300 -3.479330 0.000000 -0.000000 0.000000 -8.232657 3.834442 -9.174585 5.668104 -5.762240 28.257932 -0.399710 2.568454 -13.466951 2.644607 6.059707 16.093874 9.314187 -8.723823 4.254427 -8.339115 -16.063950 -2.262510 -39.572564 -40.299819 18.476485 -4.610968 -68.761687 28.945338 -26.291019 -16.249970 13.974389 21.866281 14.284981 9.173312 52.600294 19.207815 14.969107 -23.959279 78.641700 -7.555533 -14.701589 20.075191 14.080448 
0.323514 0.191392 0.989901 88.897209 -0.975219 92.157878 5.970432 6.019243 -1.468871 -3.575026 2.555180 0.289566 -0.114556 4.984850 -3.038772 0.000000 -0.000000 0.000000 -9.497873 -4.259938 -4.376769 1.191767 -5.372626 3.681186 7.844489 -1.171256 -3.449328 0.000000 -0.000000 0.000000 -8.265166 3.874487 -9.206363 5.760185 -5.753725 28.367759 -0.353470 2.586043 -13.553421 2.789562 5.966854 15.963490 9.116124 -8.925589 4.442635 -8.084081 -16.141431 -2.243750 -39.409917 -40.410810 18.615072 -6.234325 -69.741341 31.834065 -26.307158 -16.718259 14.219779 21.895424 14.482183 9.209868 52.107586 19.838726 14.799932 -26.259210 77.737603 -8.713646 -15.580149 21.059109 14.697518 
0.323357 0.191650 0.989857 89.001127 -0.993618 92.195245 5.924814 6.104274 -1.526708 -3.562175 2.375069 0.305787 -0.192882 4.964605 -3.079008 0.000000 -0.000000 0.000000 -9.515294 -4.274415 -4.409032 1.173261 -5.266638 3.687453 7.844066 -1.362752 -3.470785 0.000000 -0.000000 0.000000 -8.230719 3.840204 -9.145228 5.816107 -5.800075 28.236423 -0.326451 2.522010 -13.486098 2.734973 5.936241 15.814399 9.010278 -8.958011 4.470683 -7.959294 -16.221718 -2.295427 -39.234223 -40.538623 18.711656 -8.384098 -70.433985 34.395926 -26.208153 -16.649604 14.603566 21.606776 14.600483 9.213472 51.757888 20.024516 15.147300 -24.123970 77.875165 -6.615831 -18.760880 21.134205 13.583634 
0.323230 0.191930 0.989870 89.143068 -1.000776 92.195433 5.927059 6.016601 -1.484839 -3.605563 2.390963 0.167568 -0.146312 4.886516 -3.004824 0.000000 -0.000000 0.000000 -9.538835 -4.300689 -4.382500 1.163193 -5.367163 3.696320 7.836108 -1.342878 -3.456391 0.000000 -0.000000 0.000000 -8.099144 3.760315 -9.032904 5.766325 -5.898935 28.122475 -0.299311 2.451433 -13.477034 2.661077 5.843906 15.715098 8.965059 -8.770726 4.696020 -8.016937 -16.472537 -2.215438 -39.040537 -40.480221 18.700992 -9.868262 -71.020848 36.115366 -27.548383 -16.468445 14.719687 21.515970 14.656639 9.073655 50.987745 19.984728 14.810200 -23.629704 78.586686 -5.657298 -14.619690 20.136205 14.654938 
0.323188 0.192189 0.989803 89.263975 -1.051554 92.255372 5.868848 6.018484 -1.520088 -3.647795 2.286615 0.063345 -0.147849 4.902955 -2.979980 0.000000 -0.000000 0.000000 -9.601498 -4.385393 -4.437531 1.161794 -5.384103 3.722719 7.767578 -1.355604 -3.465902 0.000000 -0.000000 0.000000 -7.988995 3.631833 -9.117982 5.665034 -6.061094 28.151173 -0.307212 2.428994 -13.405092 2.425689 5.674215 15.568808 8.932385 -8.537052 4.819353 -8.123604 -16.706652 -2.277317 -38.938578 -40.407864 18.832279 -11.625603 -71.211764 37.907833 -27.776758 -15.725354 15.442504 21.323138 14.850764 8.880269 49.823794 20.047382 14.492951 -18.743994 79.252908 -1.871885 -13.423294 19.324641 15.139154 
0.322951 0.192541 0.989686 89.379862 -1.109823 92.303568 5.786023 5.994658 -1.539198 -3.661835 2.202552 -0.050323 -0.097369 4.894973 -2.957814 0.000000 -0.000000 0.000000 -9.679972 -4.439827 -4.453730 1.155154 -5.422111 3.697123 7.806021 -1.389872 -3.477289 0.000000 -0.000000 0.000000 -7.906351 3.520398 -9.122959 5.572613 -6.228940 28.235383 -0.331810 2.363692 -13.454704 2.380995 5.608680 15.329874 8.811600 -8.406749 5.019576 -8.206667 -16.947575 -2.240709 -39.147147 -40.377498 19.093404 -12.232342 -70.946163 38.784508 -28.013548 -15.110715 16.136052 21.322926 14.993128 8.877781 49.437375 19.916385 14.453039 -17.778678 79.585584 -1.192187 -12.800375 19.000372 15.321752 
0.322674 0.192822 0.989503 89.437863 -1.143919 92.361525 5.722180 6.010973 -1.628572 -3.644254 2.119099 -0.034763 -0.101287 4.903148 -2.995723 0.000000 -0.000000 0.000000 -9.732911 -4.447136 -4.480823 1.157868 -5.473040 3.647449 7.826789 -1.397028 -3.431669 0.000000 -0.000000 0.000000 -7.781673 3.423707 -9.219724 5.518776 -6.382283 28.498840 -0.384111 2.264840 -13.579252 2.339151 5.701001 15.223207 8.647677 -8.215643 4.885270 -8.302555 -17.128373 -2.158694 -39.561176 -40.377942 19.409782 -12.484512 -70.223129 39.494642 -28.200453 -14.574052 16.990627 21.287997 15.096467 8.864676 49.496031 19.832571 14.635315 -17.232164 79.627884 -0.727403 -13.654987 18.868938 14.851190 
0.322442 0.192937 0.989353 89.427935 -1.205014 92.431202 5.657590 6.071588 -1.719991 -3.676315 2.068759 -0.025248 -0.128746 4.931753 -3.016234 0.000000 -0.000000 0.000000 -9.792342 -4.447058 -4.549167 1.155085 -5.380200 3.589149 7.869499 -1.480202 -3.463643 0.000000 -0.000000 0.000000 -7.768161 3.339099 -9.276592 5.522742 -6.471513 28.616740 -0.401974 2.160246 -13.588223 2.306296 5.767497 14.979266 8.657812 -8.183954 4.961683 -8.333091 -17.172207 -2.036372 -40.291262 -40.488818 19.937060 -12.878463 -69.089439 39.954866 -27.254838 -13.424294 18.488808 21.382230 15.014516 8.951290 49.747389 19.940751 15.022760 -15.282504 79.437329 0.717410 -16.439700 19.112477 13.644876 
0.322190 0.193028 0.989358 89.262043 -1.256945 92.474513 5.592547 6.106909 -1.696349 -3.691623 2.243410 -0.108196 -0.138930 4.877807 -2.984409 0.000000 -0.000000 0.000000 -9.857755 -4.452014 -4.690686 1.137590 -5.388679 3.677046 7.972966 -1.319673 -3.477674 0.000000 -0.000000 0.000000 -7.774174 3.286634 -9.334680 5.550502 -6.536265 28.837036 -0.421449 2.206720 -13.730471 2.146559 5.904506 14.899258 8.844768 -8.142326 5.038903 -8.384642 -17.444062 -1.904110 -40.909229 -40.731688 20.292295 -12.767167 -67.215963 40.474112 -28.112029 -13.223979 19.211837 21.645625 15.012543 9.035996 49.876644 20.347296 14.455245 -17.313873 78.855470 -0.817162 -14.916171 19.891252 14.905666 
0.322034 0.192967 0.989314 89.083055 -1.271150 92.487843 5.565869 6.140924 -1.684167 -3.687313 2.300399 -0.096511 -0.114394 4.908386 -2.977000 0.000000 -0.000000 0.000000 -9.881891 -4.411954 -4.773044 1.148569 -5.327921 3.718294 8.046905 -1.266172 -3.514536 0.000000 -0.000000 0.000000 -7.793962 3.299265 -9.314217 5.612859 -6.551706 28.733406 -0.373072 2.241761 -13.644100 2.130266 6.003614 14.917026 8.826698 -8.115046 5.100716 -8.282185 -17.847965 -1.881461 -41.823050 -41.105092 21.052074 -12.418464 -64.655146 40.592157 -29.146672 -12.527043 20.212326 21.580913 15.120149 9.022350 50.229685 20.096370 14.702305 -16.631629 78.818958 -0.068313 -14.601570 19.147707 14.358545 
